<svg width="20" height="20" viewBox="0 0 20 20" fill="none" xmlns="http://www.w3.org/2000/svg">
<path d="M1.75 0.75H17.75C18.0152 0.75 18.2696 0.855357 18.4571 1.04289C18.6446 1.23043 18.75 1.48478 18.75 1.75V3.336C18.7499 3.60119 18.6446 3.85551 18.457 4.043L12.043 10.457C11.8555 10.6445 11.7501 10.8988 11.75 11.164V17.469C11.75 17.6209 11.7153 17.7708 11.6487 17.9073C11.5821 18.0438 11.4852 18.1633 11.3655 18.2568C11.2458 18.3503 11.1064 18.4153 10.9578 18.4469C10.8092 18.4785 10.6554 18.4758 10.508 18.439L8.508 17.939C8.29157 17.885 8.0994 17.7602 7.96205 17.5845C7.8247 17.4087 7.75006 17.1921 7.75 16.969V11.164C7.74994 10.8988 7.64455 10.6445 7.457 10.457L1.043 4.043C0.855451 3.85551 0.750057 3.60119 0.75 3.336V1.75C0.75 1.48478 0.855357 1.23043 1.04289 1.04289C1.23043 0.855357 1.48478 0.75 1.75 0.75Z" fill="#001020" stroke="#001020" stroke-width="1.5" stroke-linecap="round" stroke-linejoin="round"/>
</svg>
